<svg width="126" height="24" viewBox="0 0 126 24" fill="none" xmlns="http://www.w3.org/2000/svg">
<path fill-rule="evenodd" clip-rule="evenodd" d="M36.9765 18.9215C36.3153 19.1008 35.6232 19.1904 34.9002 19.1904C33.871 19.1904 32.9444 19.0143 32.1205 18.6621C31.2965 18.3099 30.619 17.8055 30.0882 17.1491C29.5573 16.4927 29.2202 15.713 29.0769 14.81L31.5196 14.4449C31.728 15.2647 32.1563 15.8987 32.8044 16.347C33.4525 16.7953 34.2 17.0194 35.0468 17.0194C35.5483 17.0194 36.0206 16.9426 36.4635 16.7889C36.9064 16.6352 37.2663 16.411 37.5432 16.1164C37.82 15.8218 37.9584 15.46 37.9584 15.0309C37.9584 14.8388 37.9258 14.6611 37.8607 14.4978C37.7956 14.3345 37.6995 14.1888 37.5725 14.0607C37.4455 13.9326 37.2826 13.8157 37.0839 13.7101C36.8853 13.6044 36.6557 13.5131 36.3951 13.4363L32.7604 12.3796C32.4478 12.2899 32.1107 12.1699 31.7492 12.0194C31.3877 11.8689 31.0457 11.6607 30.7233 11.395C30.4008 11.1292 30.137 10.7898 29.9318 10.3767C29.7267 9.96362 29.6241 9.45289 29.6241 8.84449C29.6241 7.95431 29.8537 7.20662 30.3129 6.60142C30.7721 5.99623 31.3909 5.54313 32.1693 5.24214C32.9477 4.94114 33.8124 4.79384 34.7634 4.80025C35.7274 4.80665 36.5873 4.96836 37.3429 5.28537C38.0985 5.60237 38.7303 6.06187 39.2384 6.66387C39.7464 7.26586 40.1047 7.99273 40.3131 8.84449L37.7825 9.27677C37.6783 8.79005 37.478 8.37538 37.1816 8.03276C36.8853 7.69014 36.5238 7.42916 36.0971 7.24985C35.6705 7.07053 35.2161 6.97447 34.7341 6.96166C34.2651 6.95526 33.8303 7.0241 33.4297 7.16819C33.0291 7.31229 32.7067 7.51882 32.4624 7.7878C32.2182 8.05677 32.096 8.37058 32.096 8.72921C32.096 9.06864 32.2002 9.34562 32.4087 9.56016C32.6171 9.7747 32.8761 9.94441 33.1855 10.0693C33.4949 10.1942 33.8091 10.2982 34.1283 10.3815L36.6491 11.0731C36.9944 11.1628 37.3819 11.2845 37.8118 11.4382C38.2418 11.5919 38.6554 11.8064 39.0527 12.0818C39.4501 12.3572 39.7774 12.719 40.0347 13.1673C40.292 13.6156 40.4206 14.1856 40.4206 14.8772C40.4206 15.5945 40.2692 16.2237 39.9663 16.7649C39.6634 17.306 39.2546 17.7559 38.7401 18.1145C38.2255 18.4732 37.6376 18.7422 36.9765 18.9215ZM48.5618 18.5612C47.8844 18.9871 47.0506 19.2001 46.0605 19.2001C45.2789 19.2001 44.634 19.072 44.1259 18.8158C43.6179 18.5596 43.214 18.233 42.9144 17.836C42.6148 17.4389 42.3933 17.0162 42.25 16.5679C42.1067 16.1196 42.0139 15.6954 41.9715 15.2951C41.9292 14.8948 41.908 14.5698 41.908 14.3201V8.52749H44.2921V13.5228C44.2921 13.843 44.3148 14.2032 44.3604 14.6035C44.406 15.0037 44.5119 15.388 44.678 15.7562C44.8441 16.1244 45.0916 16.427 45.4206 16.664C45.7495 16.901 46.1941 17.0194 46.7542 17.0194C47.0539 17.0194 47.3503 16.9714 47.6434 16.8753C47.9365 16.7793 48.2019 16.6144 48.4397 16.3806C48.6774 16.1469 48.868 15.8251 49.0113 15.4152C49.1546 15.0053 49.2262 14.4866 49.2262 13.859V8.52749H51.5907V18.9023H49.5096L49.5091 17.7487L49.4546 17.8132C49.1981 18.0989 48.9005 18.3483 48.5618 18.5612ZM58.9631 19.1902C59.9337 19.1902 60.7805 18.9501 61.5035 18.4697C62.2265 17.9894 62.7867 17.3362 63.184 16.5101C63.5814 15.6839 63.7801 14.7521 63.7801 13.7146C63.7801 12.6644 63.5781 11.7277 63.1743 10.9048C62.7704 10.0819 62.2021 9.43184 61.4693 8.95473C60.7365 8.47762 59.8718 8.23906 58.8752 8.23906C57.8721 8.23906 57.0302 8.47762 56.3495 8.95473L56.2467 9.03078L56.2469 5.06899H53.8726V18.902H55.9538L55.9536 18.1391L56.0109 18.1904C56.0685 18.2399 56.1276 18.2879 56.1881 18.3344L56.3739 18.4697C57.0709 18.9501 57.934 19.1902 58.9631 19.1902ZM57.0726 16.6881C57.4602 16.9731 57.9699 17.1155 58.6017 17.1155C59.214 17.1155 59.7188 16.965 60.1162 16.6641C60.5135 16.3631 60.8083 15.9548 61.0004 15.4393C61.1926 14.9237 61.2887 14.3489 61.2887 13.7149C61.2887 13.0873 61.191 12.5157 60.9955 12.0002C60.8001 11.4847 60.4972 11.0748 60.0869 10.7706C59.6765 10.4664 59.1554 10.3143 58.5236 10.3143C57.9243 10.3143 57.4358 10.4568 57.058 10.7418C56.6802 11.0268 56.4017 11.4238 56.2226 11.933C56.0435 12.4421 55.9539 13.0361 55.9539 13.7149C55.9539 14.3874 56.0435 14.9798 56.2226 15.4921C56.4017 16.0044 56.6851 16.4031 57.0726 16.6881ZM69.3254 19.1904C70.6868 19.1904 71.7534 18.8926 72.5253 18.297C73.2972 17.7014 73.6831 16.8817 73.6831 15.8378C73.6831 15.2998 73.5707 14.8419 73.346 14.4641C73.1213 14.0862 72.7565 13.7612 72.2517 13.489C71.7469 13.2169 71.0743 12.9751 70.2341 12.7638C69.4133 12.5588 68.7962 12.3859 68.3825 12.245C67.9689 12.1041 67.6937 11.9632 67.5569 11.8223C67.4201 11.6815 67.3517 11.5117 67.3517 11.3132C67.3517 10.961 67.5211 10.6872 67.8598 10.4919C68.1985 10.2966 68.6447 10.2149 69.1984 10.2469C69.7781 10.2789 70.2422 10.423 70.5907 10.6792C70.9392 10.9354 71.1427 11.2844 71.2014 11.7263L73.6049 11.3036C73.5138 10.6824 73.2727 10.1413 72.8819 9.68015C72.4911 9.21905 71.9781 8.86362 71.343 8.61385C70.708 8.36409 69.98 8.23921 69.1593 8.23921C68.319 8.23921 67.5895 8.36889 66.9707 8.62826C66.3519 8.88763 65.8699 9.25747 65.5246 9.73779C65.1794 10.2181 65.0068 10.7817 65.0068 11.4285C65.0068 11.9472 65.1208 12.3891 65.3488 12.7542C65.5767 13.1192 65.9513 13.4346 66.4724 13.7004C66.9935 13.9661 67.697 14.2143 68.5828 14.4449C69.3775 14.6498 69.967 14.8195 70.3513 14.954C70.7356 15.0885 70.9848 15.2278 71.0988 15.3719C71.2128 15.516 71.2698 15.7065 71.2698 15.9434C71.2698 16.3277 71.1151 16.6303 70.8057 16.8512C70.4963 17.0722 70.0582 17.1826 69.4915 17.1826C68.8466 17.1826 68.3125 17.0354 67.8891 16.7408C67.4657 16.4462 67.1922 16.0427 67.0684 15.5304L64.6648 15.8954C64.8407 16.9393 65.3357 17.7494 66.15 18.3258C66.9642 18.9022 68.0227 19.1904 69.3254 19.1904ZM81.5828 18.9018C80.8858 19.0299 80.2035 19.0859 79.5359 19.0699C78.8682 19.0539 78.2706 18.9322 77.743 18.7048C77.2153 18.4775 76.8147 18.1173 76.5412 17.6241C76.3002 17.1758 76.1731 16.7179 76.1601 16.2504L76.1531 15.9626C76.1447 15.5692 76.1406 15.1368 76.1406 14.6654L76.1401 10.3426H74.2255V8.527H76.1401L76.1406 5.64512H78.4855L78.4851 8.527H81.5828V10.3426H78.4851L78.4855 14.5309C78.4855 14.9472 78.4904 15.3122 78.5002 15.626C78.51 15.9398 78.5767 16.196 78.7005 16.3945C78.935 16.7788 79.3095 16.9933 79.8241 17.0382C80.3387 17.083 80.9249 17.0574 81.5828 16.9613V18.9018ZM86.3792 19.1904C87.3302 19.1904 88.1232 19.0158 88.7583 18.6668C89.2029 18.4225 89.6084 18.0801 89.9747 17.6397L90.0821 17.5045L90.0823 18.9022H92.1439V12.5332C92.1439 12.0849 92.1243 11.6702 92.0852 11.2892C92.0462 10.9082 91.9322 10.5351 91.7433 10.1701C91.398 9.48482 90.8688 8.9917 90.1555 8.6907C89.4423 8.38971 88.6167 8.23921 87.6787 8.23921C86.4346 8.23921 85.4461 8.50498 84.7133 9.03653C83.9805 9.56808 83.4838 10.2725 83.2233 11.1499L85.3728 11.8127C85.5487 11.2812 85.8581 10.9066 86.301 10.6888C86.744 10.4711 87.2032 10.3622 87.6787 10.3622C88.4669 10.3622 89.027 10.5319 89.3592 10.8713C89.631 11.149 89.7895 11.5532 89.8345 12.0839L89.8354 12.1113L89.6169 12.143C89.4423 12.1682 89.2696 12.1929 89.0988 12.2171L88.5922 12.2883C87.9246 12.3811 87.3058 12.482 86.7358 12.5908C86.1659 12.6997 85.6692 12.8214 85.2458 12.9559C84.6856 13.1416 84.2296 13.3802 83.8779 13.6716C83.5262 13.9629 83.2656 14.3088 83.0963 14.709C82.9269 15.1093 82.8422 15.5592 82.8422 16.0587C82.8422 16.6287 82.9774 17.1506 83.2477 17.6245C83.518 18.0984 83.917 18.4779 84.4446 18.7629C84.9722 19.0479 85.6171 19.1904 86.3792 19.1904ZM85.9153 17.1731C86.1661 17.2884 86.4771 17.346 86.8484 17.346C87.3825 17.346 87.8385 17.2532 88.2163 17.0674C88.5941 16.8817 88.8954 16.6544 89.1201 16.3854C89.3448 16.1164 89.4963 15.8635 89.5744 15.6265C89.6982 15.3319 89.7682 14.9941 89.7845 14.613L89.7919 14.4285C89.7965 14.3095 89.8001 14.1985 89.8028 14.0955L89.8039 14.0103L89.6747 14.0303C89.3185 14.0862 88.9952 14.138 88.7048 14.1856C88.1968 14.2688 87.7603 14.3473 87.3956 14.4209C87.0308 14.4946 86.7084 14.5762 86.4283 14.6659C86.1547 14.7619 85.9235 14.874 85.7346 15.0021C85.5457 15.1302 85.4007 15.2775 85.2998 15.444C85.1988 15.6105 85.1483 15.8058 85.1483 16.03C85.1483 16.2861 85.2135 16.5119 85.3437 16.7072C85.474 16.9025 85.6645 17.0578 85.9153 17.1731ZM96.6178 18.9023V13.5708C96.6178 12.9368 96.6894 12.4164 96.8327 12.0098C96.976 11.6031 97.1665 11.2829 97.4043 11.0491C97.6421 10.8154 97.9075 10.6505 98.2006 10.5544C98.4937 10.4583 98.7901 10.4103 99.0897 10.4103C99.6499 10.4103 100.094 10.5288 100.423 10.7657C100.752 11.0027 101 11.3053 101.166 11.6735C101.332 12.0418 101.438 12.4244 101.484 12.8215C101.529 13.2185 101.552 13.5804 101.552 13.907V18.9023H103.936V13.1097C103.936 12.8599 103.915 12.5349 103.872 12.1346C103.83 11.7344 103.737 11.3101 103.594 10.8618C103.451 10.4135 103.229 9.99084 102.93 9.59378C102.63 9.19672 102.226 8.87011 101.718 8.61394C101.21 8.35777 100.565 8.22969 99.7835 8.22969C98.7934 8.22969 97.9596 8.44263 97.2822 8.8685C96.9435 9.08144 96.6459 9.33081 96.3894 9.61659L96.3337 9.68264L96.3344 8.52748H94.2337V18.9023H96.6178ZM113.449 18.3402C112.634 18.907 111.638 19.1904 110.459 19.1904C109.371 19.1904 108.443 18.9518 107.674 18.4747C106.906 17.9976 106.318 17.346 105.911 16.5198C105.503 15.6937 105.297 14.7587 105.29 13.7148C105.297 12.6517 105.51 11.7087 105.93 10.8857C106.35 10.0628 106.948 9.41598 107.723 8.94527C108.498 8.47456 109.42 8.23921 110.488 8.23921C111.687 8.23921 112.701 8.5354 113.532 9.12779C114.362 9.72018 114.904 10.5287 115.158 11.5534L112.813 12.1778C112.631 11.6206 112.328 11.1867 111.905 10.8761C111.481 10.5655 110.999 10.4102 110.459 10.4102C109.846 10.4102 109.342 10.5527 108.944 10.8377C108.547 11.1227 108.254 11.5149 108.065 12.0145C107.876 12.514 107.782 13.0808 107.782 13.7148C107.782 14.701 108.006 15.4983 108.456 16.1067C108.905 16.7151 109.573 17.0193 110.459 17.0193C111.084 17.0193 111.577 16.8784 111.939 16.5967C112.301 16.3149 112.572 15.9082 112.755 15.3767L115.158 15.905C114.833 16.9617 114.263 17.7734 113.449 18.3402ZM125.973 14.3584C126.064 13.116 125.924 12.0369 125.553 11.1211C125.182 10.2053 124.613 9.49603 123.848 8.9933C123.083 8.49057 122.153 8.23921 121.058 8.23921C120.023 8.23921 119.111 8.46976 118.323 8.93086C117.534 9.39196 116.919 10.0404 116.476 10.8761C116.033 11.7119 115.812 12.6965 115.812 13.8301C115.812 14.8803 116.038 15.809 116.491 16.6159C116.943 17.4228 117.574 18.0536 118.381 18.5083C119.189 18.963 120.127 19.1904 121.195 19.1904C122.211 19.1904 123.141 18.931 123.985 18.4123C124.828 17.8935 125.452 17.1666 125.856 16.2316L123.53 15.54C123.302 16.0203 122.978 16.3869 122.558 16.6399C122.138 16.8929 121.638 17.0193 121.058 17.0193C120.159 17.0193 119.476 16.7312 119.007 16.1548C118.646 15.7114 118.424 15.1278 118.341 14.404L118.336 14.3584H124.82H125.973ZM118.393 12.61H123.582L123.556 12.4218C123.462 11.8369 123.288 11.3777 123.032 11.0442C122.635 10.5255 122.009 10.2661 121.156 10.2661C120.192 10.2661 119.476 10.5591 119.007 11.1451L118.91 11.2748C118.692 11.5871 118.533 11.9671 118.432 12.4147L118.393 12.61Z" fill="#2E2C34"/>
<path fill-rule="evenodd" clip-rule="evenodd" d="M14.3024 0.513213C13.0323 -0.171071 11.4986 -0.171071 10.2285 0.513213L2.86534 4.48024C1.49342 5.21939 0.639404 6.64243 0.639404 8.18931V15.6972C0.639404 17.244 1.49342 18.6671 2.86534 19.4062L10.2285 23.3733C11.4986 24.0575 13.0323 24.0575 14.3024 23.3733L21.6655 19.4062C23.0374 18.6671 23.8915 17.244 23.8915 15.6972V8.18931C23.8915 6.64243 23.0374 5.21939 21.6655 4.48024L14.3024 0.513213ZM12.2653 16.1925C14.7724 16.1925 16.8048 14.1794 16.8048 11.6962C16.8048 9.21303 14.7724 7.2 12.2653 7.2C9.75823 7.2 7.72584 9.21303 7.72584 11.6962C7.72584 14.1794 9.75823 16.1925 12.2653 16.1925Z" fill="#2E2C34"/>
</svg>
